<svg xmlns="http://www.w3.org/2000/svg" viewBox="0 0 264.61 235.3"><defs><style>.cls-1{fill:#95c11f;}.cls-2{fill:#3c3c3b;}.cls-3{fill:#009640;}.cls-4{fill:#fff;}</style></defs><g id="Calque_2" data-name="Calque 2"><g id="Calque_1-2" data-name="Calque 1"><path class="cls-1" d="M124.58,43.63H140.7a65.61,65.61,0,0,1,65.61,65.61V153.9a0,0,0,0,1,0,0H59a0,0,0,0,1,0,0V109.24a65.61,65.61,0,0,1,65.61-65.61Z"/><path class="cls-2" d="M132.64,147.89A54,54,0,0,0,85.56,94.37l-3.32-7.82c-6.64-15.6-36-18-36-18S33.82,83.79,32.93,97.89C18.26,96.1,0,108.8,0,108.8S.24,138.24,15.29,146l9.42,4.88V235.3H132.64V209.71L52.63,184l80-25.76Z"/><path class="cls-3" d="M231.68,97.89c-.89-14.1-13.33-29.39-13.33-29.39s-29.34,2.45-36,18L179,94.46a54,54,0,0,0-46.37,53.43V158.2l80,25.76-80,25.75V235.3H240.57V150.56l8.75-4.53c15.05-7.79,15.29-37.23,15.29-37.23S246.35,96.1,231.68,97.89Z"/><circle class="cls-4" cx="180.27" cy="146.71" r="17.61"/><circle class="cls-4" cx="85.01" cy="146.71" r="17.61"/><path class="cls-1" d="M147.28,23.81c0,13.16-6.55,23.82-14.64,23.82S118,37,118,23.81,132.64,0,132.64,0,147.28,10.66,147.28,23.81Z"/><path class="cls-1" d="M119.57,19.39c9.3,9.3,12.21,21.48,6.49,27.19S108.17,49.4,98.87,40.1s-6.49-27.19-6.49-27.19S110.27,10.09,119.57,19.39Z"/><path class="cls-1" d="M145.71,19.39c-9.3,9.3-12.2,21.48-6.48,27.19s17.89,2.82,27.19-6.48,6.49-27.19,6.49-27.19S155,10.09,145.71,19.39Z"/></g></g></svg>