<?xml version="1.0" encoding="utf-8"?>
<!-- Generator: Adobe Illustrator 25.0.0, SVG Export Plug-In . SVG Version: 6.00 Build 0)  -->
<svg version="1.1" id="Calque_1" xmlns="http://www.w3.org/2000/svg" xmlns:xlink="http://www.w3.org/1999/xlink" x="0px" y="0px"
	 viewBox="0 0 1000 616" style="enable-background:new 0 0 1000 616;" xml:space="preserve">
<style type="text/css">
	.st0{fill:#FFFFFF;}
	.st1{fill:#FF0000;}
</style>
<g>
	<path class="st0" d="M591.15,101.32c17.47-21.82,35.14-36.77,53.04-44.86c17.9-8.07,40.38-11.46,67.45-10.15
		c27.06,1.31,58.93,13.97,95.61,37.98l18.99,11.13l-4.58-16.37l16.37,9.17c-7.86-30.56-13.75-47.15-17.68-49.77
		c12.22,13.1,22.15,24.13,29.79,33.07c7.64,8.95,14.63,18.45,20.96,28.49c6.33,10.05,9.71,18.56,10.15,25.54
		c3.93-13.97,3.49-24.88-1.31-32.74c-2.62-3.49-1.31,0.11,3.93,10.8c5.24,10.7,11.46,23.8,18.66,39.29
		c7.2,15.5,13.97,30.89,20.3,46.17c6.32,15.28,9.49,25.32,9.49,30.12c2.18-12.22,1.74-23.57-1.31-34.05
		c17.03,48.03,20.96,80.77,11.79,98.23c-3.06-16.59-7.2-24.23-12.44-22.92c5.67,17.46,4.15,27.94-4.58,31.44
		c3.93-13.97,3.05-20.96-2.62-20.96l-4.58,17.02l-13.75-15.71l4.58,21.61c-8.3-12.66-21.18-21.17-38.64-25.54l15.06-0.65
		c0.87,0-2.08-4.36-8.84-13.09c-6.78-8.73-15.94-19.32-27.51-31.76c-11.57-12.44-24.78-25.21-39.62-38.31
		c-14.85-13.09-29.69-23.79-44.53-32.09c15.72,14.85,25.31,24.88,28.82,30.12c-14.41-7.86-26.52-12.66-36.35-14.41
		c-9.83-1.74-19.87-0.43-30.12,3.93c-10.26,4.37-18.45,14.85-24.56,31.43c-7.86,27.94-7.64,60.58,0.65,97.9
		c8.29,37.33,22.37,71.93,42.24,103.8c19.86,31.87,44.42,57.53,73.67,76.95c29.24,19.43,61.33,25,96.27,16.7l19.65-14.41
		c-9.61,11.79-16.37,19.22-20.3,22.27c15.28-6.11,24.66-12.44,28.16-18.99l5.24,8.52c17.03-17.9,24.45-35.36,22.27-52.39
		c7.42,25.33,8.29,41.04,2.62,47.15c9.17-3.05,14.18-9.17,15.06-18.34c0,15.29-1.09,24.23-3.27,26.85
		c7.86,0.88,12.87-1.31,15.06-6.55c-20.09,40.6-51.74,65.49-94.96,74.66c-37.98,3.49-76.73-7.2-116.24-32.09
		c-39.52-24.88-75.42-55.88-107.72-92.99c-32.31-37.1-58.84-76.07-79.57-116.9c-20.73-40.82-31.76-75.41-33.07-103.8
		c11.79,28.82,19.65,44.53,23.57,47.15c-17.46-46.71-27.28-77.49-29.47-92.33l24.89,45.19l0.65-60.25
		c-3.93,20.96-6.11,33.18-6.55,36.67c0,3.93-1.85-2.39-5.57-18.99C572.71,162.66,577.63,136.68,591.15,101.32z"/>
	<path class="st0" d="M58.21,57.82c32.12-17.42,66.24-25.92,102.35-25.51c36.11,0.42,68.65,4.41,97.63,11.97s43.24,8.19,42.83,1.89
		l-2.52-27.08l15.12,27.08l9.45-25.82l7.56,25.82c8.82-1.26,8.19-16.58-1.89-45.98c10.91,8.82,17.84,26.04,20.79,51.65l13.86-10.71
		l2.52,19.53l7.56-23.94l5.67,35.27l6.93-7.56l3.15,19.53l8.19-4.41l-0.63,13.23c3.78,2.94,12.6-0.63,26.45-10.71
		c-1.26,5.89-7.98,12.6-20.15,20.16l5.67,10.71l9.45,6.3c-7.56,6.72-8.82,11.13-3.78,13.23c4.62,2.52,10.49-0.21,17.64-8.19
		l-14.49,25.19l22.68-10.71c0,6.72-3.15,12.81-9.45,18.27c6.3-1.26,13.86,2.94,22.68,12.6c-3.37-4.62-13.02-4.62-28.97,0l13.22,5.04
		l-10.71,5.67c10.49,2.52,20.36,12.39,29.6,29.6l-8.19-8.19c-10.5-9.23-15.75-7.77-15.75,4.41c-2.11,18.89-15.85,32.34-41.26,40.31
		c-25.41,7.98-45.66-1.89-60.78-29.6c-5.89-7.56-14.49-13.64-25.82-18.27c-11.34-4.62-22.68-8.4-34.01-11.34
		c-11.34-2.93-25.41-5.45-42.2-7.56c4.19-1.67,22.46-1.47,54.79,0.63c-10.08-5.88-34.43-10.49-73.06-13.86
		c-18.48-1.26-33.18,1.37-44.09,7.87c-10.92,6.51-19.21,13.96-24.88,22.36c-5.67,8.4-10.6,19.74-14.8,34.01
		c-3.36,22.26-3.04,39.68,0.95,52.28c3.99,12.6,8.93,21.95,14.8,28.03c5.88,6.09,14.49,10.39,25.82,12.91
		c28.13,0.85,62.14-0.1,102.04-2.84c39.88-2.72,77.88,0,114,8.19c36.11,8.19,66.45,25.19,91.01,51.02
		c24.56,25.82,35.59,67.29,33.06,124.4c-11.33,30.23-40.53,51.86-87.55,64.87c-9.67,0.42-24.25,0.63-43.77,0.63
		c-19.53,0-38.95-0.1-58.26-0.31c-19.32-0.21-43.46-0.52-72.43-0.95c3.35,4.19-0.63,16.16-11.97,35.9
		c1.67-2.11,0.21-13.44-4.41-34.01c1.26,8.82-8.82,23.93-30.23,45.35l-5.04-28.97c-9.24-1.26-17.22-5.78-23.93-13.54
		c-6.72-7.77-12.19-16.27-16.38-25.51c-4.2-9.23-8.19-21.2-11.97-35.9l11.97,18.27c-6.72-20.99-8.61-38.83-5.67-53.54
		c2.93-14.69,7.56-26.55,13.86-35.59c6.3-9.02,15.75-17.53,28.34-25.51l0.63,11.34c3.78-10.08,21.83-16.58,54.17-19.52
		c-6.3,0-10.71,10.92-13.23,32.75l15.75-6.93l-1.26,32.75l12.6-1.89c-2.52,5.46,6.71,13.02,27.71,22.68
		c39.89,6.3,73.9-0.21,102.04-19.53c8.39-19.73,11.23-35.37,8.5-46.92c-2.74-11.54-7.35-20.36-13.86-26.46
		c-6.51-6.08-16.69-10.81-30.55-14.17c-5.04-1.26-19.43-1.99-43.15-2.2c-23.73-0.21-48.92,0-75.58,0.63
		c-26.67,0.63-61.2,1.57-103.61,2.84c-37.37-2.93-65.19-15.75-83.45-38.42c-18.27-22.67-30.86-46.92-37.79-72.75
		c-6.93-25.82-9.97-59.93-9.13-102.35C6.88,111.88,26.09,75.24,58.21,57.82z"/>
	<path class="st1" d="M352.91,190.95c-2.43-6.07-7.9-16.25-16.41-30.53c-3.94-6.68-4.78-8.81-2.51-6.38
		c2.28,2.43,6.15,6.53,11.62,12.3c5.47,5.77,11.7,11.47,18.68,17.09c6.99,5.62,12.76,8.13,17.32,7.52
		c-6.68-5.16-8.2-9.72-4.56-13.67c25.82,17.02,45.57,22.33,59.24,15.95c7.29,18.23,13.82,26.73,19.59,25.52l-5.47,17.32l11.39-12.76
		l-5.01,34.63l125.31,157.66L551.58,275.7l-21.42-40.1l16.86,20.05l-14.13-64.71c1.21-25.81,3.03-42.38,5.47-49.67
		c1.21,17.62,4.56,26.88,10.02,27.8c3.03-8.2,1.52-16.7-4.56-25.52c15.49,18.53,28.78,32.51,39.87,41.92
		c11.09,9.42,22.71,16.63,34.86,21.65c12.15,5.01,22.63,3.12,31.44-5.7c-0.91,4.86-0.91,8.82,0,11.85c0,0.31,2.28,0,6.84-0.91
		c-3.95,1.22-5.92,2.59-5.92,4.1c0,2.73,3.03,5.93,9.11,9.57c-15.19,1.22-25.52,8.82-30.99,22.78c-5.47,13.98-8.43,29.17-8.89,45.57
		s0.3,31.52,2.28,45.34c1.97,13.83,3.11,21.04,3.42,21.64l2.28,1.82c-0.61,3.64-1.3,7.82-2.05,12.53
		c-0.76,4.71-1.44,9.65-2.05,14.81c-1.52,12.76-2.36,26.05-2.51,39.87c-0.16,13.83,1.89,25.29,6.15,34.4
		c-1.52-11.54-2.51-21.19-2.96-28.93c-0.46-7.75-0.39-15.34,0.23-22.78c0.61-7.44,2.28-12.83,5.01-16.18
		c-0.31-0.3-0.68,2.59-1.14,8.66c-0.46,6.08-0.53,13.37-0.23,21.87c0.3,8.51,1.37,17.09,3.19,25.75
		c1.82,8.66,5.16,15.42,10.02,20.28c2.73,4.26,2.28,8.05-1.37,11.39c-8.2,9.73-16.86,14.13-25.97,13.21
		c-20.36,0.3-30.53-3.34-30.53-10.94c-3.95-13.97-7.9-22.33-11.85-25.06c-16.71-17.92-30-32.58-39.87-43.97
		c-9.88-11.39-18.91-22.4-27.11-33.04c-8.2-10.63-12.3-17.47-12.3-20.5c7.29,25.52,13.9,46.33,19.82,62.43
		c5.92,16.1,12.68,31.44,20.28,46.02c7.59,14.58,15.49,23.7,23.69,27.34c1.52,18.23-1.37,30.53-8.66,36.91
		c-12.15-2.73-22.03-5.55-29.62-8.43c-7.6-2.89-15.04-6.69-22.33-11.39c-7.29-4.71-12.3-10.41-15.04-17.09
		c-13.98-23.39-25.97-36.91-36-40.55c9.72-1.52,17.77-1.37,24.15,0.46c-2.44,1.53-7.22-5.92-14.35-22.33
		c-7.14-16.4-15.12-35.54-23.92-57.41c-8.82-21.87-18-43.36-27.57-64.48c-9.57-21.11-17.84-35.77-24.83-43.97l-10.48,3.19
		l4.56-22.33c-15.79-22.17-26.88-33.27-33.26-33.27c7.9-6.07,9.11-11.39,3.64-15.95c2.44-5.16,1.52-10.93-2.73-17.31l-3.19-6.83
		L352.91,190.95z"/>
</g>
</svg>
